<?xml version="1.0" encoding="utf-8"?>
<!-- Generator: Adobe Illustrator 16.0.0, SVG Export Plug-In . SVG Version: 6.00 Build 0)  -->
<!DOCTYPE svg PUBLIC "-//W3C//DTD SVG 1.1//EN" "http://www.w3.org/Graphics/SVG/1.1/DTD/svg11.dtd">
<svg version="1.1" xmlns="http://www.w3.org/2000/svg" xmlns:xlink="http://www.w3.org/1999/xlink" x="0px" y="0px" width="1090px"
	 height="1242.808px" viewBox="0 0 1090 1242.808" enable-background="new 0 0 1090 1242.808" xml:space="preserve">
<g id="Capa_2" display="none">
	<rect display="inline" width="1090" height="1242.808"/>
	<g display="inline">
		<g>
			<polygon opacity="0.1" fill="#FFFFFF" points="679.361,774.585 592.95,724.598 679.617,674.597 766.283,724.598 			"/>
			<polygon opacity="0.2" fill="#FFFFFF" points="679.617,874.597 592.95,824.596 592.95,724.598 679.361,774.585 			"/>
			<polygon opacity="0.3" fill="#FFFFFF" points="679.617,874.597 679.361,774.585 766.283,724.598 766.283,824.597 			"/>
		</g>
		<g>
			<g opacity="0.3">
				<polygon fill="#FFFFFF" points="683.117,626.413 683.117,651.642 766.283,699.622 683.117,747.449 683.117,772.584 810,699.616 
									"/>
				<polygon fill="#FFFFFF" points="676.117,747.733 592.95,699.622 676.117,651.641 676.117,626.856 550,699.616 676.117,772.572 
									"/>
			</g>
			<g opacity="0.1">
				<polygon fill="#FFFFFF" points="571.668,833.248 571.668,737.115 654.569,785.073 676.1,772.562 550,699.616 550,845.839 				
					"/>
				<polygon fill="#FFFFFF" points="658.088,791.124 658.334,887.114 575.322,839.221 553.733,851.767 680,924.615 679.627,778.607 
									"/>
			</g>
			<g opacity="0.2">
				<polygon fill="#FFFFFF" points="704.736,785.153 788.27,737.115 788.27,833.695 810,846.323 810,699.616 683.111,772.587 				
					"/>
				<polygon fill="#FFFFFF" points="784.23,839.444 701.604,887.114 701.357,791.286 679.627,778.658 680,924.615 805.852,852.009 
									"/>
			</g>
		</g>
	</g>
	<g display="inline">
		<g>
			<polygon opacity="0.1" fill="#FFFFFF" points="949.362,466.375 862.95,416.388 949.618,366.388 1036.283,416.388 			"/>
			<polygon opacity="0.2" fill="#FFFFFF" points="949.618,566.388 862.95,516.387 862.95,416.388 949.362,466.375 			"/>
			<polygon opacity="0.3" fill="#FFFFFF" points="949.618,566.388 949.362,466.375 1036.283,416.388 1036.283,516.388 			"/>
		</g>
		<g>
			<g opacity="0.3">
				<polygon fill="#FFFFFF" points="953.117,318.204 953.117,343.432 1036.283,391.413 953.117,439.24 953.117,464.375 
					1080,391.407 				"/>
				<polygon fill="#FFFFFF" points="946.117,439.524 862.95,391.413 946.117,343.432 946.117,318.647 820,391.407 946.117,464.363 
									"/>
			</g>
			<g opacity="0.1">
				<polygon fill="#FFFFFF" points="841.668,525.039 841.668,428.906 924.569,476.864 946.1,464.353 820,391.407 820,537.63 				"/>
				<polygon fill="#FFFFFF" points="928.088,482.915 928.334,578.905 845.322,531.012 823.733,543.558 950.001,616.406 
					949.627,470.398 				"/>
			</g>
			<g opacity="0.2">
				<polygon fill="#FFFFFF" points="974.736,476.944 1058.27,428.906 1058.27,525.486 1080,538.114 1080,391.407 953.111,464.378 
									"/>
				<polygon fill="#FFFFFF" points="1054.23,531.235 971.604,578.905 971.357,483.077 949.627,470.449 950.001,616.406 
					1075.852,543.8 				"/>
			</g>
		</g>
	</g>
</g>
<g id="Capa_1">
	<g>
		<g>
			<polygon opacity="0.1" fill="#FFFFFF" points="139.362,158.171 52.95,108.184 139.618,58.184 226.283,108.184 			"/>
			<polygon opacity="0.2" fill="#FFFFFF" points="139.618,258.184 52.95,208.183 52.95,108.184 139.362,158.171 			"/>
			<polygon opacity="0.3" fill="#FFFFFF" points="139.618,258.184 139.362,158.171 226.283,108.184 226.283,208.184 			"/>
		</g>
		<g>
			<g opacity="0.3">
				<polygon fill="#FFFFFF" points="143.117,10 143.117,35.228 226.283,83.209 143.117,131.036 143.117,156.171 270,83.203 				"/>
				<polygon fill="#FFFFFF" points="136.117,131.32 52.95,83.209 136.117,35.228 136.117,10.443 10,83.203 136.117,156.159 				"/>
			</g>
			<g opacity="0.1">
				<polygon fill="#FFFFFF" points="31.667,216.835 31.667,120.702 114.569,168.66 136.099,156.148 10,83.203 10,229.426 				"/>
				<polygon fill="#FFFFFF" points="118.088,174.711 118.333,270.701 35.322,222.808 13.733,235.354 140,308.202 139.627,162.194 
									"/>
			</g>
			<g opacity="0.2">
				<polygon fill="#FFFFFF" points="164.736,168.74 248.27,120.702 248.27,217.282 270,229.91 270,83.203 143.111,156.174 				"/>
				<polygon fill="#FFFFFF" points="244.231,223.031 161.603,270.701 161.358,174.873 139.627,162.245 140,308.202 265.851,235.596 
									"/>
			</g>
		</g>
	</g>
	<g>
		<g>
			<polygon opacity="0.1" fill="#FFFFFF" points="679.361,158.171 592.95,108.184 679.617,58.184 766.283,108.184 			"/>
			<polygon opacity="0.2" fill="#FFFFFF" points="679.617,258.184 592.95,208.183 592.95,108.184 679.361,158.171 			"/>
			<polygon opacity="0.3" fill="#FFFFFF" points="679.617,258.184 679.361,158.171 766.283,108.184 766.283,208.184 			"/>
		</g>
		<g>
			<g opacity="0.3">
				<polygon fill="#FFFFFF" points="683.117,10 683.117,35.228 766.283,83.209 683.117,131.036 683.117,156.171 810,83.203 				"/>
				<polygon fill="#FFFFFF" points="676.117,131.32 592.95,83.209 676.117,35.228 676.117,10.443 550,83.203 676.117,156.159 				
					"/>
			</g>
			<g opacity="0.1">
				<polygon fill="#FFFFFF" points="571.668,216.835 571.668,120.702 654.569,168.66 676.1,156.148 550,83.203 550,229.426 				"/>
				<polygon fill="#FFFFFF" points="658.088,174.711 658.334,270.701 575.322,222.808 553.733,235.354 680,308.202 679.627,162.194 
									"/>
			</g>
			<g opacity="0.2">
				<polygon fill="#FFFFFF" points="704.736,168.74 788.27,120.702 788.27,217.282 810,229.91 810,83.203 683.111,156.174 				"/>
				<polygon fill="#FFFFFF" points="784.23,223.031 701.604,270.701 701.357,174.873 679.627,162.245 680,308.202 805.852,235.596 
									"/>
			</g>
		</g>
	</g>
	<g>
		<g>
			<polygon opacity="0.1" fill="#FFFFFF" points="409.362,466.375 322.95,416.388 409.618,366.388 496.283,416.388 			"/>
			<polygon opacity="0.2" fill="#FFFFFF" points="409.618,566.388 322.95,516.387 322.95,416.388 409.362,466.375 			"/>
			<polygon opacity="0.3" fill="#FFFFFF" points="409.618,566.388 409.362,466.375 496.283,416.388 496.283,516.388 			"/>
		</g>
		<g>
			<g opacity="0.3">
				<polygon fill="#FFFFFF" points="413.117,318.204 413.117,343.432 496.283,391.413 413.117,439.24 413.117,464.375 540,391.407 
									"/>
				<polygon fill="#FFFFFF" points="406.117,439.524 322.95,391.413 406.117,343.432 406.117,318.647 280,391.407 406.117,464.363 
									"/>
			</g>
			<g opacity="0.1">
				<polygon fill="#FFFFFF" points="301.667,525.039 301.667,428.906 384.569,476.864 406.099,464.353 280,391.407 280,537.63 				
					"/>
				<polygon fill="#FFFFFF" points="388.088,482.915 388.333,578.905 305.322,531.012 283.733,543.558 410,616.406 409.627,470.398 
									"/>
			</g>
			<g opacity="0.2">
				<polygon fill="#FFFFFF" points="434.736,476.944 518.27,428.906 518.27,525.486 540,538.114 540,391.407 413.111,464.378 				
					"/>
				<polygon fill="#FFFFFF" points="514.23,531.235 431.604,578.905 431.357,483.077 409.627,470.449 410,616.406 535.852,543.8 
									"/>
			</g>
		</g>
	</g>
	<g>
		<g>
			<polygon opacity="0.1" fill="#FFFFFF" points="139.362,774.584 52.95,724.597 139.618,674.596 226.283,724.597 			"/>
			<polygon opacity="0.2" fill="#FFFFFF" points="139.618,874.596 52.95,824.595 52.95,724.597 139.362,774.584 			"/>
			<polygon opacity="0.3" fill="#FFFFFF" points="139.618,874.596 139.362,774.584 226.283,724.597 226.283,824.596 			"/>
		</g>
		<g>
			<g opacity="0.3">
				<polygon fill="#FFFFFF" points="143.117,626.412 143.117,651.641 226.283,699.621 143.117,747.448 143.117,772.583 270,699.615 
									"/>
				<polygon fill="#FFFFFF" points="136.117,747.732 52.95,699.621 136.117,651.64 136.117,626.855 10,699.615 136.117,772.571 				
					"/>
			</g>
			<g opacity="0.1">
				<polygon fill="#FFFFFF" points="31.667,833.247 31.667,737.114 114.569,785.072 136.099,772.561 10,699.615 10,845.838 				"/>
				<polygon fill="#FFFFFF" points="118.088,791.123 118.333,887.113 35.322,839.22 13.733,851.766 140,924.614 139.627,778.606 
									"/>
			</g>
			<g opacity="0.2">
				<polygon fill="#FFFFFF" points="164.736,785.152 248.27,737.114 248.27,833.694 270,846.322 270,699.615 143.111,772.586 				
					"/>
				<polygon fill="#FFFFFF" points="244.23,839.443 161.604,887.113 161.357,791.285 139.627,778.657 140,924.614 265.852,852.008 
									"/>
			</g>
		</g>
	</g>
	<g>
		<g>
			<polygon opacity="0.1" fill="#FFFFFF" points="949.361,1082.779 862.949,1032.793 949.617,982.792 1036.283,1032.793 			"/>
			<polygon opacity="0.2" fill="#FFFFFF" points="949.617,1182.791 862.949,1132.791 862.949,1032.793 949.361,1082.779 			"/>
			<polygon opacity="0.3" fill="#FFFFFF" points="949.617,1182.791 949.361,1082.779 1036.283,1032.793 1036.283,1132.791 			"/>
		</g>
		<g>
			<g opacity="0.3">
				<polygon fill="#FFFFFF" points="953.117,934.608 953.117,959.836 1036.283,1007.817 953.117,1055.645 953.117,1080.779 
					1080,1007.811 				"/>
				<polygon fill="#FFFFFF" points="946.117,1055.928 862.949,1007.817 946.117,959.836 946.117,935.051 820,1007.811 
					946.117,1080.768 				"/>
			</g>
			<g opacity="0.1">
				<polygon fill="#FFFFFF" points="841.668,1141.443 841.668,1045.311 924.568,1093.268 946.1,1080.756 820,1007.811 820,1154.033 
									"/>
				<polygon fill="#FFFFFF" points="928.088,1099.318 928.334,1195.309 845.322,1147.416 823.732,1159.961 950,1232.811 
					949.627,1086.803 				"/>
			</g>
			<g opacity="0.2">
				<polygon fill="#FFFFFF" points="974.736,1093.348 1058.27,1045.311 1058.27,1141.891 1080,1154.518 1080,1007.811 
					953.111,1080.781 				"/>
				<polygon fill="#FFFFFF" points="1054.23,1147.639 971.604,1195.309 971.357,1099.48 949.627,1086.854 950,1232.811 
					1075.852,1160.203 				"/>
			</g>
		</g>
	</g>
	<g>
		<g>
			<polygon opacity="0.1" fill="#FFFFFF" points="409.362,1082.779 322.95,1032.793 409.618,982.792 496.283,1032.793 			"/>
			<polygon opacity="0.2" fill="#FFFFFF" points="409.618,1182.791 322.95,1132.791 322.95,1032.793 409.362,1082.779 			"/>
			<polygon opacity="0.3" fill="#FFFFFF" points="409.618,1182.791 409.362,1082.779 496.283,1032.793 496.283,1132.791 			"/>
		</g>
		<g>
			<g opacity="0.3">
				<polygon fill="#FFFFFF" points="413.117,934.608 413.117,959.836 496.283,1007.817 413.117,1055.645 413.117,1080.779 
					540,1007.811 				"/>
				<polygon fill="#FFFFFF" points="406.117,1055.928 322.95,1007.817 406.117,959.836 406.117,935.051 280,1007.811 
					406.117,1080.768 				"/>
			</g>
			<g opacity="0.1">
				<polygon fill="#FFFFFF" points="301.667,1141.443 301.667,1045.311 384.569,1093.268 406.099,1080.756 280,1007.811 
					280,1154.033 				"/>
				<polygon fill="#FFFFFF" points="388.088,1099.318 388.333,1195.309 305.322,1147.416 283.733,1159.961 410,1232.811 
					409.627,1086.803 				"/>
			</g>
			<g opacity="0.2">
				<polygon fill="#FFFFFF" points="434.736,1093.348 518.27,1045.311 518.27,1141.891 540,1154.518 540,1007.811 413.111,1080.781 
									"/>
				<polygon fill="#FFFFFF" points="514.23,1147.639 431.604,1195.309 431.357,1099.48 409.627,1086.854 410,1232.811 
					535.852,1160.203 				"/>
			</g>
		</g>
	</g>
</g>
</svg>
